#!OML:ASF H:\BabyWalks\Project 1\Capture day 1\Session 1\baby.ASF
:FULLY-SPECIFIED
:DEGREES
863
root 38.1149 17.5315 2.1031 -549.887 83.3132 -551.973
lowerback 21.813 -2.31902 2.04792
upperback 6.8727 -1.82997 2.75269
thorax -4.65135 -0.667413 2.23374
lowerneck 0.549772 0.299639 7.32344
upperneck -8.20951 -0.126176 -12.9766
head -2.49226 0.205127 -5.16011
rclavicle -1.19271e-015 -4.45278e-014
rhumerus -37.4569 9.11652 -79.8507
rradius 65.0849
rwrist -11.4428
rhand -13.7416 -16.7778
rfingers 7.12502
rthumb 12.3783 -46.3913
lclavicle -1.19271e-015 -4.45278e-014
lhumerus -35.1639 -12.5153 83.5743
lradius 42.1557
lwrist -7.7418
lhand 0.363966 7.47189
lfingers 7.12502
lthumb 25.9389 35.7221
rfemur -16.3101 9.6907 18.4184
rtibia 30.4534
rfoot -15.5782 6.63315
rtoes 5.33344
lfemur -17.4841 -0.781748 -11.262
ltibia 51.1495
lfoot -21.378 -19.1041
ltoes -7.80169
864
root 38.2013 17.5453 2.09745 -550.258 83.7433 -552.361
lowerback 21.7235 -2.21563 2.21574
upperback 6.84513 -1.67338 2.72093
thorax -4.64534 -0.593353 2.06228
lowerneck 0.583965 0.371895 7.45994
upperneck -8.08896 -0.0254216 -13.1682
head -2.45063 0.255402 -5.24402
rclavicle -1.98785e-015 6.83819e-014
rhumerus -37.5931 9.30767 -80.0515
rradius 65.7348
rwrist -11.1932
rhand -13.6816 -16.5371
rfingers 7.12502
rthumb 12.4361 -46.1472
lclavicle -1.98785e-015 6.83819e-014
lhumerus -36.3722 -12.2489 83.9781
lradius 41.5907
lwrist -7.92588
lhand 0.975955 8.02793
lfingers 7.12502
lthumb 26.5248 36.191
rfemur -15.8754 9.91681 18.5406
rtibia 30.0503
rfoot -15.6016 6.86961
rtoes 5.52549
lfemur -17.8556 -0.391898 -11.3473
ltibia 50.7496
lfoot -21.4952 -18.4186
ltoes -7.46886
865
root 38.2875 17.5578 2.09153 -550.458 84.1456 -552.602
lowerback 21.6058 -2.11712 2.39235
upperback 6.81903 -1.52272 2.6923
thorax -4.6221 -0.522243 1.89011
lowerneck 0.622702 0.431969 7.57766
upperneck -7.9953 0.0587473 -13.3272
head -2.41941 0.297746 -5.31456
rclavicle 2.06736e-014 1.03368e-014
rhumerus -37.7382 9.49194 -80.2503
rradius 66.3283
rwrist -10.939
rhand -13.6773 -16.3489
rfingers 7.12502
rthumb 12.4402 -45.9587
lclavicle 2.06736e-014 1.03368e-014
lhumerus -37.5519 -11.9661 84.3451
lradius 41.104
lwrist -8.1117
lhand 1.61185 8.57546
lfingers 7.12502
lthumb 27.1333 36.6451
rfemur -15.482 10.1229 18.6695
rtibia 29.6774
rfoot -15.6404 7.08954
rtoes 5.69339
lfemur -18.2654 -0.104019 -11.4198
ltibia 50.2198
lfoot -21.588 -17.7931
ltoes -7.08537
866
root 38.3735 17.5686 2.08535 -550.339 84.5245 -552.542
lowerback 21.4744 -2.02332 2.58693
upperback 6.79137 -1.37475 2.67137
thorax -4.59244 -0.452385 1.71678
lowerneck 0.671671 0.479465 7.67396
upperneck -7.92439 0.12596 -13.4554
head -2.39849 0.332186 -5.37189
rclavicle 2.78299e-015 1.59028e-014
rhumerus -37.8978 9.66559 -80.4431
rradius 66.8682
rwrist -10.6949
rhand -13.7064 -16.2221
rfingers 7.12502
rthumb 12.4121 -45.8336
lclavicle 2.78299e-015 1.59028e-014
lhumerus -38.7045 -11.6629 84.6768
lradius 40.6806
lwrist -8.29113
lhand 2.23956 9.09263
lfingers 7.12502
lthumb 27.7337 37.0672
rfemur -15.1182 10.3167 18.8199
rtibia 29.3293
rfoot -15.6886 7.28973
rtoes 5.86572
lfemur -18.705 0.0815417 -11.4621
ltibia 49.5696
lfoot -21.6687 -17.2133
ltoes -6.68009
867
root 38.4589 17.5777 2.0788 -549.886 84.8823 -552.157
lowerback 21.333 -1.93263 2.79162
upperback 6.76794 -1.22859 2.65943
thorax -4.5517 -0.383076 1.54801
lowerneck 0.714751 0.520184 7.76149
upperneck -7.86562 0.183663 -13.5686
head -2.38118 0.361841 -5.42295
rclavicle 7.95139e-016 -1.66979e-014
rhumerus -38.0616 9.82996 -80.6244
rradius 67.3512
rwrist -10.4809
rhand -13.7713 -16.1401
rfingers 7.12502
rthumb 12.3496 -45.7554
lclavicle 7.95139e-016 -1.66979e-014
lhumerus -39.8166 -11.3363 84.9716
lradius 40.308
lwrist -8.45276
lhand 2.84544 9.57755
lfingers 7.12502
lthumb 28.3129 37.4574
rfemur -14.7744 10.498 18.9898
rtibia 29.0022
rfoot -15.74 7.47384
rtoes 6.04921
lfemur -19.161 0.165562 -11.4748
ltibia 48.81
lfoot -21.7381 -16.6586
ltoes -6.25244
868
root 38.544 17.5851 2.07186 -549.037 85.2234 -551.38
lowerback 21.1878 -1.84258 3.00607
upperback 6.75027 -1.08071 2.65691
thorax -4.50145 -0.312447 1.38378
lowerneck 0.75787 0.553915 7.83522
upperneck -7.81972 0.23177 -13.6622
head -2.36878 0.386844 -5.46551
rclavicle -1.86858e-014 -2.8625e-014
rhumerus -38.2288 9.97295 -80.7894
rradius 67.7789
rwrist -10.2925
rhand -13.8486 -16.0974
rfingers 7.12502
rthumb 12.2751 -45.7171
lclavicle -1.86858e-014 -2.8625e-014
lhumerus -40.8835 -10.9953 85.2322
lradius 39.9701
lwrist -8.5875
lhand 3.41874 10.0203
lfingers 7.12502
lthumb 28.8606 37.808
rfemur -14.4411 10.6695 19.1823
rtibia 28.6913
rfoot -15.7922 7.64268
rtoes 6.23709
lfemur -19.6227 0.1566 -11.4532
ltibia 47.9521
lfoot -21.795 -16.1125
ltoes -5.82153
869
root 38.6283 17.591 2.06441 -547.839 85.5498 -550.248
lowerback 21.0538 -1.75051 3.22001
upperback 6.73741 -0.928973 2.66282
thorax -4.4502 -0.239435 1.22873
lowerneck 0.804096 0.583429 7.90179
upperneck -7.77991 0.274115 -13.7498
head -2.35934 0.409302 -5.50499
rclavicle -7.15625e-015 -4.13472e-014
rhumerus -38.3977 10.0934 -80.9316
rradius 68.1433
rwrist -10.1224
rhand -13.9241 -16.0653
rfingers 7.12502
rthumb 12.2023 -45.6894
lclavicle -7.15625e-015 -4.13472e-014
lhumerus -41.9036 -10.6408 85.4603
lradius 39.6651
lwrist -8.67124
lhand 3.97096 10.4368
lfingers 7.12502
lthumb 29.388 38.1332
rfemur -14.1118 10.8319 19.389
rtibia 28.3973
rfoot -15.8418 7.80119
rtoes 6.43164
lfemur -20.0785 0.0626934 -11.4049
ltibia 47.0048
lfoot -21.835 -15.5619
ltoes -5.38445
